<?xml version="1.0"?><svg enable-background="new 0 0 211.191 132.0272" id="behance" version="1.1" viewBox="0 0 211.191 132.0272" xml:space="preserve" xmlns="http://www.w3.org/2000/svg" xmlns:xlink="http://www.w3.org/1999/xlink"><g><path d="M70.2772,51.9064c4.1992-2.9844,6.3284-7.7464,6.3284-14.1564c0-3.4844-0.6856-6.4648-2.0704-8.914   c-1.426-2.4336-3.342-4.328-5.6112-5.59c-2.1916-1.2852-4.59-2.1368-7.254-2.586C59.3244,20.2148,56.7928,20,53.9316,20H24v36h32   C61.6564,56,66.4608,54.6212,70.2772,51.9064z M32,28h21.9316c2.3576,0,4.4004,0.172,6.328,0.5352   c1.7656,0.2968,3.2756,0.824,4.6956,1.6564c1.0996,0.6092,1.9744,1.492,2.6464,2.6364c0.666,1.176,1.004,2.832,1.004,4.922   c0,5.5312-2.2288,7.1132-2.9612,7.6328l-0.0036,0.004C63.17,47.1444,60.0176,48,56,48H32V28z"/><path d="M92.2912,59.836c2.8024-2.1288,5.1404-4.5548,6.992-7.2656c3.254-4.8244,4.9044-10.836,4.9044-17.8672   c0-6.3984-1.084-11.8788-3.2228-16.3008c-2.2128-4.5508-5.3748-8.254-9.414-11.0196c-3.9432-2.6756-8.6036-4.5976-13.8556-5.7188   C72.5744,0.5428,67.0312,0,60.746,0H0v132.0272h62.3828c5.8576,0,11.6328-0.746,17.1584-2.2188   c5.734-1.5192,10.8904-3.8828,15.3356-7.0348c4.6232-3.3008,8.3164-7.5548,10.9708-12.6328   c2.6916-5.1096,4.0568-11.2072,4.0568-18.1172c0-8.5628-2.1116-16.0196-6.2776-22.1604C100.7968,65.6916,97,62.336,92.2912,59.836z    M98.7636,106.4256c-2.072,3.9612-4.9432,7.2736-8.5252,9.8284c-3.6524,2.5896-7.9396,4.5468-12.75,5.824   c-4.8596,1.2932-9.9416,1.9492-15.1056,1.9492H8V8h52.746C66.4552,8,71.4432,8.4844,76,9.4804l0.0216,0.008   c4.238,0.9024,7.9532,2.4216,11.0232,4.5036c2.9044,1.9884,5.1036,4.5744,6.7228,7.9024c1.6056,3.3204,2.42,7.6292,2.42,12.8088   c0,5.41-1.1896,9.914-3.5236,13.3748c-2.4376,3.5664-6.1404,6.5508-11.0076,8.8712l-9.4944,4.5236l10.1016,2.9256   c6.6936,1.9416,11.5156,5.1992,14.7424,9.9572c3.2968,4.8592,4.8984,10.6364,4.8984,17.668   C101.9044,97.6212,100.8496,102.4648,98.7636,106.4256z"/><path d="M56.5372,68H24v44h32c3.0624,0,5.9276-0.3124,8.5216-0.922c3.0292-0.7032,5.668-1.8552,7.7752-3.3904   c2.418-1.6796,4.344-3.9416,5.7128-6.6992c1.3812-2.75,2.0528-6.1096,2.0528-10.2736c0-7.918-2.2928-13.8124-6.8476-17.5468   C68.9416,69.7384,63.33,68,56.5372,68z M70.8536,97.414c-0.7736,1.5548-1.8244,2.8048-3.1936,3.754   c-1.3184,0.9608-2.9352,1.6524-4.9432,2.1132l-0.0236,0.008C60.7012,103.7616,58.4492,104,56,104H32V76h24.5372   c4.9256,0,8.8536,1.1484,11.6384,3.3828c2.5784,2.1132,3.8868,5.9256,3.8868,11.332   C72.0624,93.5624,71.6584,95.8084,70.8536,97.414z"/><path d="M186.4728,71.9532c-0.6292-6.9416-2.8536-12.676-6.6192-17.0548c-3.672-4.246-9.676-6.586-16.9084-6.586   c-4.576,0-8.5,0.8712-11.6736,2.59c-3.006,1.6404-5.512,3.7224-7.4864,6.2344c-1.8692,2.4452-3.2052,5.1288-3.9648,7.9492   c-0.7112,2.574-1.1308,4.9256-1.252,6.996l-0.244,4.2304h48.5428L186.4728,71.9532z M147.246,68.3124   c0.09-0.3632,0.1856-0.738,0.2932-1.1208c0.5-1.8636,1.3516-3.5628,2.5684-5.1524c1.2676-1.6096,2.9472-2.9964,4.986-4.1096   c1.9808-1.074,4.6212-1.6172,7.8516-1.6172c4.8732,0,8.7288,1.3556,10.8496,3.8124c1.8712,2.172,3.2092,4.918,4.004,8.1876H147.246   z"/><path d="M180.0528,97.6248c-0.5608,1.8128-2.2852,3.7424-4.9784,5.5784c-2.9004,1.9688-6.4552,2.9648-10.5664,2.9648   c-5.8048,0-10.2188-1.3984-13.1212-4.1564l-0.002-0.0036c-2.2344-2.1172-3.8652-5.8128-4.5136-9.9808h63.906l0.252-3.7304   c0.4884-7.16-0.1308-14.1092-1.834-20.6524c-1.7536-6.7188-4.6248-12.746-8.5272-17.9024   c-4.0116-5.324-9.168-9.5976-15.3144-12.6912c-6.1896-3.1444-13.4824-4.7384-21.674-4.7384   c-7.3064,0-14.0956,1.2968-20.1856,3.8596c-6.0292,2.5468-11.334,6.1016-15.7656,10.57   c-4.3476,4.3792-7.7908,9.7384-10.242,15.9376c-2.3712,6.086-3.5724,12.6992-3.5724,19.6564c0,7.1912,1.168,13.91,3.4748,19.9764   c2.326,6.0784,5.664,11.4024,9.9588,15.8712c4.4316,4.492,9.6076,7.8556,15.844,10.2852c6.152,2.3592,13.0468,3.5584,20.488,3.5584   c10.8788,0,20.3088-2.488,28-7.3828c7.9084-4.9492,13.834-13.2188,17.6096-24.578l1.75-5.2616H180.924L180.0528,97.6248z    M186.4628,102.8048h13.2112c-3.0568,6.8828-7.094,11.8396-12.262,15.074c-6.414,4.0784-14.3984,6.1484-23.7324,6.1484   c-6.4588,0-12.3868-1.0192-17.6016-3.0192c-5.1464-2.008-9.41-4.7696-12.998-8.4064c-3.5624-3.7032-6.25-8.008-8.2168-13.1408   c-1.9568-5.1484-2.9492-10.91-2.9492-17.1248c0-5.9612,1.0176-11.5976,3.0196-16.7344c2.0704-5.2384,4.8436-9.5664,8.4748-13.2268   c3.6932-3.7224,8.1344-6.6952,13.1932-8.832c5.0976-2.1444,10.8436-3.2304,17.078-3.2304c6.922,0,12.9944,1.3008,18.0644,3.8792   c5.0528,2.5428,9.2696,6.0272,12.5392,10.3708c3.2716,4.3244,5.6836,9.4064,7.17,15.1016   c1.1912,4.5704,1.7732,9.3868,1.7364,14.3632h-64.6272v4c0,7.918,2.8028,15.5,7.3128,19.7812   c4.4372,4.2188,10.7068,6.3596,18.6328,6.3596c5.74,0,10.8064-1.4608,15.0624-4.3476   C182.7072,107.6836,185.0156,105.332,186.4628,102.8048z"/><path d="M192,8h-60v20h60V8z M184,20h-44v-4h44V20z"/></g></svg>