<?xml version="1.0"?><!DOCTYPE svg  PUBLIC '-//W3C//DTD SVG 1.1//EN'  'http://www.w3.org/Graphics/SVG/1.1/DTD/svg11.dtd'><svg height="6.82666in" style="shape-rendering:geometricPrecision; text-rendering:geometricPrecision; image-rendering:optimizeQuality; fill-rule:evenodd; clip-rule:evenodd" viewBox="0 0 6.82666 6.82666" width="6.82666in" xml:space="preserve" xmlns="http://www.w3.org/2000/svg" xmlns:xlink="http://www.w3.org/1999/xlink"><defs><style type="text/css">
   <![CDATA[
    .fil0 {fill:#039BE5}
    .fil1 {fill:#F1F2F2}
   ]]>
  </style></defs><g id="Layer_x0020_1"><rect class="fil0" height="6.82667" rx="1.45635" ry="1.45635" width="6.82667"/><path class="fil1" d="M4.59622 2.84269c-0.951638,0 -0.952823,0.947909 -0.952823,0.952819 0,0 -0.0650394,0.948783 0.952823,0.948783 0,0 0.848661,0.0484606 0.848661,-0.660319l-0.435776 0c0,0 0.014315,0.266886 -0.398571,0.266886 0,0 -0.435776,0.0290039 -0.435776,-0.431217l1.28473 0c0,0 0.141382,-1.07695 -0.863268,-1.07695zm-0.426394 0.744961c0,0 0.0530787,-0.381614 0.435858,-0.381614 0.384197,0 0.37787,0.381614 0.37787,0.381614l-0.813728 0zm-1.08898 -0.244c0,0 0.377957,-0.0275276 0.377957,-0.471957 0,-0.443287 -0.309106,-0.660614 -0.701646,-0.660614l-1.29085 -1.9685e-005 0 2.48134 1.29085 0c0,0 0.788469,0.0243622 0.788469,-0.732917 0,0 0.0338346,-0.615835 -0.46478,-0.615835zm-1.04568 -0.691886l0.721992 0c0,0 0.175193,0 0.175193,0.258315 0,0.258358 -0.102681,0.295957 -0.219906,0.295957l-0.67728 0 0 -0.554272zm0.685874 1.59993l-0.685874 0 0 -0.664047 0.721992 0c0,0 0.262039,-0.0022874 0.260937,0.341748 0,0.289858 -0.194437,0.319945 -0.297055,0.322299zm1.34126 -1.89441l0 0.305339 1.02396 0 0 -0.305339 -1.02396 0z"/></g></svg>